#!OML:ASF H:\Dans Jumps\Project 1\Capture day 1\Session 1\subject.ASF
:FULLY-SPECIFIED
:DEGREES
330
root 0.473442 15.591 -16.1856 23.8813 -1.14075 -1.91281
lowerback 19.3832 0.158661 -0.277401
upperback 5.74689 0.27138 2.06726
thorax -4.65366 0.121564 2.3001
lowerneck -19.6989 1.02148 -1.98826
upperneck 8.07328 2.06865 -1.42506
head 5.60579 0.826599 0.0749885
rclavicle -4.96962e-015 -1.64991e-014
rhumerus -35.6448 -12.0357 -73.8179
rradius 29.5808
rwrist 25.2803
rhand -18.4778 -23.8809
rfingers 7.12502
rthumb 7.8092 -53.7167
lclavicle -4.96962e-015 -1.64991e-014
lhumerus -37.9399 -4.93104 86.3447
lradius 23.4088
lwrist 20.8824
lhand -29.4578 -6.51352
lfingers 7.12502
lthumb -2.7938 23.4479
rfemur -64.1243 -2.52603 20.7943
rtibia 62.9438
rfoot -22.7536 -6.22803
rtoes 1.43369
lfemur -64.0655 8.56701 -21.9215
ltibia 62.9415
lfoot -21.2638 11.1702
ltoes -10.1686
331
root 0.472578 15.5135 -16.2145 24.4498 -1.12628 -1.94162
lowerback 19.766 0.168214 -0.301055
upperback 5.77411 0.282841 2.0863
thorax -4.82488 0.127825 2.33389
lowerneck -19.9088 1.03537 -1.9825
upperneck 7.50845 2.08443 -1.46387
head 5.45865 0.839066 0.0620281
rclavicle 1.78906e-015 5.06901e-015
rhumerus -36.4836 -12.0307 -73.5674
rradius 29.5791
rwrist 25.3293
rhand -18.407 -23.7696
rfingers 7.12502
rthumb 7.87753 -53.6028
lclavicle 1.78906e-015 5.06901e-015
lhumerus -38.9718 -4.91476 86.4839
lradius 23.3216
lwrist 21.2237
lhand -29.4153 -6.41946
lfingers 7.12502
lthumb -2.75276 23.5425
rfemur -65.4809 -2.44377 20.8257
rtibia 63.9711
rfoot -22.954 -6.40365
rtoes 1.3354
lfemur -65.4461 8.47415 -21.9636
ltibia 63.9841
lfoot -21.3692 11.3708
ltoes -10.1832
332
root 0.471634 15.435 -16.2421 25.0305 -1.09869 -1.96619
lowerback 20.1484 0.174873 -0.319818
upperback 5.80224 0.291367 2.10475
thorax -4.99434 0.132688 2.36499
lowerneck -20.1196 1.04554 -1.96927
upperneck 6.92711 2.09375 -1.51158
head 5.30664 0.848239 0.0443313
rclavicle 5.66536e-015 -5.36719e-015
rhumerus -37.3525 -12.0868 -73.2809
rradius 29.5747
rwrist 25.482
rhand -18.2991 -23.6387
rfingers 7.12502
rthumb 7.98162 -53.468
lclavicle 5.66536e-015 -5.36719e-015
lhumerus -40.0103 -4.83974 86.5957
lradius 23.2066
lwrist 21.4161
lhand -29.2357 -6.21724
lfingers 7.12502
lthumb -2.57934 23.7469
rfemur -66.8483 -2.37537 20.856
rtibia 64.9977
rfoot -23.1428 -6.57793
rtoes 1.26669
lfemur -66.8324 8.35645 -21.9975
ltibia 65.0204
lfoot -21.4984 11.533
ltoes -10.2228
333
root 0.470358 15.3556 -16.269 25.6109 -1.05462 -1.97776
lowerback 20.5509 0.178498 -0.339971
upperback 5.83219 0.295697 2.12166
thorax -5.17157 0.13563 2.39647
lowerneck -20.3254 1.0477 -1.96326
upperneck 6.32244 2.09244 -1.55278
head 5.14636 0.852981 0.0286824
rclavicle 4.96962e-016 -4.87022e-015
rhumerus -38.2563 -12.2191 -72.9492
rradius 29.5667
rwrist 25.7301
rhand -18.1626 -23.4814
rfingers 7.12502
rthumb 8.11343 -53.3057
lclavicle 4.96962e-016 -4.87022e-015
lhumerus -41.0585 -4.70654 86.6748
lradius 23.0757
lwrist 21.4662
lhand -28.961 -5.96503
lfingers 7.12502
lthumb -2.31409 24.0022
rfemur -68.2158 -2.32314 20.8763
rtibia 66.0217
rfoot -23.31 -6.756
rtoes 1.20783
lfemur -68.2104 8.21033 -22.0284
ltibia 66.0471
lfoot -21.6345 11.6846
ltoes -10.2528
334
root 0.468569 15.2751 -16.2954 26.1865 -0.985855 -1.98102
lowerback 20.9789 0.177199 -0.355206
upperback 5.8647 0.295056 2.14205
thorax -5.3585 0.136264 2.43045
lowerneck -20.5224 1.04037 -1.9701
upperneck 5.69323 2.07968 -1.58523
head 4.97677 0.852958 0.0165862
rclavicle 5.96354e-016 6.55989e-015
rhumerus -39.2019 -12.3998 -72.5811
rradius 29.5658
rwrist 25.99
rhand -18.0512 -23.3167
rfingers 7.12502
rthumb 8.22091 -53.1368
lclavicle 5.96354e-016 6.55989e-015
lhumerus -42.1165 -4.51227 86.7207
lradius 22.9349
lwrist 21.4022
lhand -28.6647 -5.77953
lfingers 7.12502
lthumb -2.02792 24.1906
rfemur -69.5772 -2.28913 20.8929
rtibia 67.0412
rfoot -23.4574 -6.9347
rtoes 1.16883
lfemur -69.5779 8.03692 -22.0493
ltibia 67.0628
lfoot -21.7651 11.8301
ltoes -10.2513
335
root 0.466366 15.1944 -16.3207 26.735 -0.908277 -1.97593
lowerback 21.4515 0.178207 -0.375249
upperback 5.90499 0.29675 2.16501
thorax -5.55957 0.138145 2.4699
lowerneck -20.713 1.02472 -1.99261
upperneck 5.04972 2.05824 -1.60882
head 4.80156 0.849321 0.00887621
rclavicle 7.35503e-015 3.18055e-015
rhumerus -40.1932 -12.6142 -72.1802
rradius 29.5783
rwrist 26.1788
rhand -17.9938 -23.1372
rfingers 7.12502
rthumb 8.27628 -52.9551
lclavicle 7.35503e-015 3.18055e-015
lhumerus -43.185 -4.27053 86.7394
lradius 22.7931
lwrist 21.2899
lhand -28.3904 -5.63224
lfingers 7.12502
lthumb -1.76299 24.3402
rfemur -70.9016 -2.26 20.897
rtibia 68.052
rfoot -23.595 -7.11156
rtoes 1.13024
lfemur -70.9047 7.85499 -22.066
ltibia 68.0631
lfoot -21.8823 11.9665
ltoes -10.2115
